<svg width="684" height="681" viewBox="0 0 684 681" fill="none" xmlns="http://www.w3.org/2000/svg">
<path d="M401.527 645.645C401.155 650.37 397.892 649.881 395.656 648.736C385.562 643.568 377.909 648.75 370.37 654.3C366.157 657.402 361.032 657.68 356.588 654.398C354.147 652.595 351.659 650.892 348.515 650.78C346.347 650.703 343.93 650.678 342.656 652.796C340.196 656.881 336.365 656.758 333.015 655.31C328.3 653.272 309.856 630.777 308.5 634.818C321.543 641.849 303.639 649.318 308.5 634.818C297.149 646.432 294.515 627.279 308.5 634.818C310.046 633.237 288.762 631.887 287.979 629.1C283.226 629.38 278.927 627.683 274.819 624.445C271.653 621.951 267.155 622.657 263.156 622.972C262.444 623.029 261.407 623.59 261.161 624.184C258.743 630.028 253.958 629.224 249.304 628.387C246.439 627.871 243.745 627.54 241.085 629.089C239.024 630.29 236.902 630.102 234.93 628.825C231.612 626.675 228.115 626.531 224.385 627.511C219.086 628.904 214.59 627.869 211.111 623.201C208.485 619.677 205.381 616.656 200.422 616.808C199.367 616.84 198.588 616.113 198.319 614.235C202.137 612.054 206.55 611.92 209.264 615.244C214.888 622.135 221.102 623.532 230.045 623.523C237.091 623.516 244.671 621.857 251.832 624.21C253.014 624.598 255.067 624.745 255.531 623.51C257.68 617.79 262.858 618.865 267.025 618.449C271.704 617.982 276.296 619.196 280.048 622.449C280.55 622.884 281.104 623.681 281.592 623.649C288.923 623.181 295.086 628.024 302.158 628.258C311.534 628.569 318.82 631.957 323.747 640.237C326.38 644.661 331.694 646.557 334.64 650.891C335.422 652.041 337.318 651.378 338.674 650.324C345.312 645.166 350.344 644.75 357.218 649.607C361.801 652.844 364.543 652.081 369.326 648.919C377.047 643.814 385.996 639.652 395.945 643.976C396.078 643.514 396.313 643.049 396.219 642.969C389.757 637.444 389.242 630.082 389.952 622.412C390.323 618.402 395.235 616.582 390.935 616.64C391.839 624.14 392.362 620.602 392.272 608.14C392.235 602.974 397.888 594.312 397.816 589.147C397.776 586.226 400.681 584.013 403.675 584.086C407.339 584.176 397.122 585.594 400.788 585.571C402.819 585.558 397.662 586.677 397.816 589.147C397.997 592.032 398.697 594.503 396.612 594.64C394.785 594.76 395.498 602.136 393.666 602.183C392.172 602.222 393.861 596.615 393.666 598.324C392.013 598.048 404.023 606.251 393.666 598.324C394.973 598.541 392.338 602.132 393.666 602.183C393.794 600.141 395.762 602.263 393.666 602.183C393.549 604.064 394.677 604.658 392.877 604.553C398.567 604.553 400.442 605.643 393.666 605.64C400.442 604.586 391.713 602.168 391.839 606.674C391.957 610.899 389.468 610.842 391.839 611.219C395.134 611.743 391.095 609.734 390.935 606.674C390.479 597.889 395.566 591.697 400.788 585.571C401.101 585.204 401.538 584.86 401.987 584.705C413.69 580.653 422.997 572.48 433.465 566.313C439.607 562.695 441.674 562.765 446.594 568.105C450.012 571.815 454.703 571.627 459.143 570.927C464.348 570.107 468.837 569.465 471.618 575.704C473.171 579.187 481.041 578.927 483.047 575.729C485.441 571.913 488.623 572.91 490.431 575.331C494.403 580.649 498.988 580.71 504.562 578.841C508.472 577.53 511.303 579.088 511.514 583.409C511.667 586.547 513.436 587.218 515.922 587.71C523.752 589.259 530.919 592.14 536.474 598.75C541.26 595.23 546.275 593.692 551.802 597.964C554.06 593.67 557.59 592.815 561.82 593.953C563.04 594.281 564.198 594.096 565.039 593.142C567.213 590.675 569.965 589.971 573.133 590.094C575.464 590.184 576.795 588.916 577.062 586.559C575.775 585.145 572.914 586.704 572.499 584.255C572.079 581.771 574.491 581.518 576.01 580.73C578.334 579.525 579.286 577.387 579.771 575.109C580.365 572.321 581.847 571.148 584.646 571.276C588.055 571.431 590.395 569.655 591.683 566.658C592.888 563.856 594.803 562.008 597.657 561.04C600.169 560.189 602.025 558.671 602.652 555.953C603.306 553.113 605.591 551.975 607.994 551.226C611.392 550.167 614.258 548.158 617.304 546.47C619.622 545.187 621.436 543.625 620.348 540.495C619.786 538.878 620.993 537.716 621.769 536.43C624 532.73 626.146 528.977 628.268 525.214C629.278 523.423 629.002 521.651 627.735 520.086C626.325 518.345 624.653 519.164 623.215 519.945C617.789 522.892 612.66 522.127 606.935 520.172C600.598 518.009 594.114 516.808 590.051 510.675C588.427 508.223 587.054 505.912 587.617 502.846C587.794 501.881 588.103 500.61 587.664 499.911C583.213 492.822 588.538 487.927 591.694 482.82C594.626 478.076 592.957 472.563 587.369 472.214C582.153 471.888 578.173 471.144 577.48 464.923C577.344 463.706 575.619 462.676 574.649 461.54C570.49 456.665 571.676 452.12 577.79 449.979C582.3 448.4 587.042 447.648 591.326 445.219C596.979 442.012 597.656 434.18 592.305 430.51C591.352 429.856 589.825 429.187 589.683 428.337C588.652 422.167 583.145 419.489 579.835 415.121C576.202 410.329 576.718 406.802 580.941 403.411C588.715 397.167 589.117 395.508 582.171 388.542C578.547 384.908 576.901 381.765 577.699 376.362C578.989 367.623 572.118 362.825 563.925 365.923C562.531 366.45 561.081 366.826 559.67 367.311C556.29 368.474 554.624 370.706 554.679 374.433C554.779 381.129 547.266 387.123 540.739 385.791C538.569 385.348 537.081 384.158 536.479 382.057C535.886 379.984 536.991 378.398 538.578 377.37C543.761 374.013 545.012 370.013 542.107 364.238C540.097 360.245 544.049 349.158 547.474 346.191C552.771 341.601 558.194 337.091 557.064 328.782C556.668 325.87 558.685 323.768 561.369 322.675C563.077 321.98 564.91 321.495 566.082 319.998C571.7 312.819 577.26 305.595 582.608 298.689C581.863 296.341 580.204 296.842 579.069 296.351C577.689 295.752 576.86 294.881 577.161 293.29C577.885 289.459 584.189 283.605 587.985 283.004C590.313 282.636 592.377 282.858 593.79 284.866C595.788 287.707 598.184 287.26 600.832 286.062C607.083 283.233 610.347 276.126 608.427 269.482C607.482 266.208 607.609 262.779 608.143 259.56C609.157 253.454 609.692 247.378 608.884 241.252C607.872 233.58 613.126 227.371 613.589 219.996C613.9 215.052 615.249 210.179 616.031 205.257C616.573 201.845 618.11 199.056 620.405 196.477C627.023 189.04 629.284 185.072 631.619 177.46C627.971 174.437 623.588 173.075 618.893 173.39C612.913 173.791 607.241 174.023 603.13 168.487C601.927 166.868 600.101 166.483 598.237 167.723C591.731 172.049 585.85 169.894 580.397 165.708C578.192 164.015 576.517 163.51 574.285 165.449C571.318 168.026 568.43 166.968 565.687 164.884C561.951 162.044 560.064 157.939 558.176 153.846C555.393 147.808 546.2 143.692 539.894 145.996C535.252 147.693 531.15 147.317 527.218 144.298C523.717 141.61 520.178 140.644 515.684 142.668C510.499 145.003 507.139 143.182 503.585 138.924C499.107 133.559 493.428 129.047 486.957 126.766C480.733 124.572 479.248 120.197 477.907 114.912C476.628 109.873 478.641 104.74 477.633 99.3371C473.315 100.529 471.853 103.67 470.39 106.824C467.524 113.006 463.375 115.416 456.5 114.791C454.352 114.596 452.218 114.21 450.089 113.842C448.133 113.504 446.361 112.446 446.225 110.463C445.895 105.688 445.421 100.815 446.02 96.1104C446.789 90.0636 444.29 86.2692 438.089 86.0127C434.928 85.882 431.752 85.867 428.592 86.0011C424.72 86.1654 422.404 84.3577 422.178 80.6181C421.921 76.3369 419.768 74.9492 415.765 74.7842C407.601 74.4478 404.725 71.8081 403.128 63.507C402.684 61.2027 402.369 58.9093 401.111 56.8768C399.104 53.6319 396.463 52.9251 393.02 54.6576C381.823 60.2908 372.111 54.6855 370.933 41.9941C370.656 39.0111 370.37 36.0167 369.837 33.073C369.265 29.9121 367.565 28.265 364.169 29.8355C356.261 33.4928 347.782 35.2355 339.426 37.4734C329.255 40.1972 324.771 46.0519 324.718 56.6737C324.67 66.5125 324.753 76.3666 322.482 85.9551C321.47 90.2293 326.582 94.4129 323.872 97.1652C313.723 107.469 303.518 118.275 287.84 119.857C278.057 120.844 269.726 125.237 261.654 130.293C257.583 132.843 256.032 137.313 254.792 141.598C253.763 145.151 256.497 146.718 259.535 147.234C261.482 147.565 263.526 147.299 265.523 147.374C266.689 147.418 268.005 147.498 268.247 148.984C268.484 150.435 267.395 151.247 266.221 151.37C258.573 152.174 252.824 156.805 246.536 160.554C242.364 163.041 237.392 163.491 232.593 161.486C222.189 157.141 210.463 158.753 200.087 154.274C199.799 154.149 199.363 154.08 199.109 154.209C193.36 157.127 189.855 154.375 187.512 149.399C185.472 145.067 183.322 140.77 185.378 135.598C186.927 131.702 184.975 128.948 181.314 130.168C173.941 132.625 167.052 132.165 159.867 128.783C161.98 133.538 161.572 137.967 160.759 142.599C160.013 146.854 162.891 150.254 165.268 153.383C173.045 163.621 173.242 175.427 172.725 187.396C172.464 193.449 171.543 199.594 178.237 203.176C179.367 203.78 179.96 204.796 179.57 206.098C179.091 207.7 177.756 207.838 176.352 207.784C171.843 207.608 167.406 208.137 162.936 208.746C158.73 209.318 155.049 207.887 152.976 203.807C149.54 204.367 149.816 206.243 150.94 208.524C151.646 209.957 152.026 211.525 150.219 212.378C148.621 213.133 147.743 211.792 147.081 210.658C145.618 208.15 143.473 207.409 140.726 207.796C139.382 207.985 137.88 207.956 136.924 206.967C131.461 201.311 126.447 204.73 121.848 207.992C114.127 213.469 111.317 213.181 107.157 204.917C104.149 198.942 99.9415 193.782 96.5392 188.087C95.0736 185.634 92.6976 185.592 90.3588 186.416C86.5047 187.773 82.6172 188.191 78.5577 187.747C75.4841 187.411 73.6664 188.435 73.3444 192.079C72.9053 197.047 70.2467 198.591 65.3067 197.06C62.5884 196.218 60.1515 195.596 58.0179 198.051C55.6977 200.721 53.3396 200.183 51.1317 198.025C48.1424 195.103 45.0479 194.264 41.2803 196.648C40.224 197.316 38.5955 197.752 37.4317 197.467C30.5159 195.776 24.9302 200.027 18.7494 201.492C14.5085 202.498 13.5539 205.636 14.5544 211.626C15.227 215.654 18.2414 214.073 20.4437 214.266C22.4183 214.439 24.4016 214.301 26.3714 213.693C28.0735 213.168 29.9014 212.598 31.4289 213.419C33.1723 214.777 31.4726 216.507 32.4287 217.831C33.7881 218.883 37.1946 217.736 36.5934 220.835C36.1196 223.278 33.4479 222.821 31.5345 222.971C29.7378 223.112 27.9214 223.002 25.9629 223.737C27.8915 224.328 29.9073 224.726 31.728 225.554C34.3739 226.757 35.857 228.918 35.5685 231.947C35.2925 234.845 33.0806 235.692 30.6866 236.114C28.7331 236.458 26.7451 236.658 24.7637 236.778C22.9607 236.886 21.1461 236.801 19.1485 237.157C22.0939 239.071 24.7982 241.13 27.1726 243.629C29.2172 245.78 30.5694 248.086 30.519 251.149C30.4956 252.567 30.0348 254.393 31.9229 255.02C33.7053 255.612 35.4057 255.425 37.0297 254.066C43.063 249.016 50.3204 249.518 55.328 255.186C55.6584 255.56 55.968 256.196 56.3487 256.247C63.5693 257.204 69.3685 261.53 75.8321 264.275C77.2197 264.864 78.6004 265.239 79.63 266.382C80.6334 267.497 81.6865 268.572 82.616 269.746C87.3579 275.732 93.4886 276.521 100.329 274.446C101.677 274.036 102.938 273.952 104.237 274.329C106.088 274.867 108.48 274.661 109.274 276.929C110.076 279.218 107.284 279.673 106.449 281.596C109.96 283.008 113.53 280.94 117.081 282.181C122.636 284.121 124.048 287.318 120.579 292.081C117.171 296.761 117.778 297.959 123.187 299.708C127.223 301.014 130.638 302.16 134.58 298.998C136.675 297.317 140.108 297.95 142.798 299.025C147.673 300.972 150.866 304.748 153.878 308.936C151.313 310.646 149.788 309.507 148.254 308.516C146.854 307.613 145.539 306.557 144.075 305.777C137.751 302.405 134.932 303.514 132.259 310.71C135.988 311.439 139.061 313.166 139.96 317.216C140.874 321.334 138.434 324.287 136.116 327.048C133.495 330.169 133.405 332.717 136.257 335.73C140.847 340.579 145.131 345.674 146.682 352.48C146.922 353.534 147.698 354.72 148.581 355.333C156.673 360.946 163.872 368.14 174.256 369.735C178.263 370.35 179.957 373.185 178.314 377.086C177.228 379.667 177.683 381.131 179.313 383.246C182.867 387.86 181.294 400.317 177.063 404.717C175.697 406.138 173.713 406.949 172.632 409.421C175.964 412.544 179.05 416.349 182.95 418.917C193.094 425.598 196.819 435.656 198.342 446.807C198.909 450.962 200.338 454.442 202.475 457.855C203.365 459.277 204.283 461.102 202.485 462.308C200.532 463.617 199.567 461.635 198.529 460.407C194.063 455.122 192.697 448.463 190.854 442.12C188.837 435.174 183.965 431.088 177.535 426.542C172.885 442.885 171.708 459.074 168.997 474.979C170.109 476.844 172.469 476.494 173.764 478.307C178.351 484.723 178.247 485.63 170.881 487.954C168.735 488.631 167.885 490.227 167.785 492.036C166.701 511.653 159.82 530.063 156.104 549.122C154.758 556.026 152.472 562.104 147.886 567.503C145.228 570.632 142.023 572.644 138.227 574.662C142.899 575.646 145.138 580.965 150.623 580.386C154.483 579.979 155.82 582.611 155.546 586.211C155.293 589.535 153.782 592.435 151.973 595.755C154.852 595.698 154.947 591.932 157.577 592.729C159.593 593.34 160.717 595.228 162.48 596.093C168.668 599.129 174.248 603.489 181.762 603.472C187.085 603.46 189.313 607.268 187.989 612.655C187.668 612.722 187.11 612.921 187.057 612.829C184.177 607.828 179.621 606.905 174.236 606.5C170.973 606.254 167.912 603.704 164.699 602.332C161.511 600.971 158.772 598.505 154.574 600.549C152.265 601.674 149.428 599.656 147.795 597.354C146.15 595.035 147.332 592.922 148.733 590.941C149.962 589.205 151.62 587.606 150.353 584.471C145.124 586.462 141.736 582.435 137.663 580.233C135.163 578.881 133.333 576.783 133.453 573.914C133.572 571.053 135.959 570.168 138.429 569.101C145.16 566.194 149.024 560.375 150.729 553.647C154.852 537.379 158.453 520.976 162.128 504.597C163.948 496.486 162.948 488.089 164.058 479.944C166.325 463.324 169.255 446.795 171.894 430.226C172.294 427.711 172.986 425.221 174.678 423.366C177.647 420.112 175.893 418.201 173.244 416.123C166.117 410.53 166.106 408.166 172.969 402.25C177.423 398.411 178.375 389.608 174.604 385.252C173.005 383.404 172.756 381.406 172.887 379.222C173.011 377.173 172.445 375.307 170.421 374.816C162.843 372.979 158.204 366.479 151.518 363.186C146.456 360.694 142.913 356.671 141.55 350.766C140.555 346.458 137.129 343.403 134.202 340.213C128.311 333.793 128.143 330.475 133.441 323.731C137.134 319.03 136.623 317.532 130.67 315.959C127.909 315.23 126.479 313.182 127.195 310.771C128.963 304.811 124.982 304.384 121.078 303.845C113.898 302.853 111.009 296.994 114.875 290.747C117.089 287.171 115.101 285.793 112.155 286.137C106.241 286.828 101.159 286.018 96.4131 281.989C94.7996 280.619 91.6462 281.063 89.4821 280.723C87.4391 281.82 88.2935 285.376 85.4249 284.86C82.6797 284.366 82.7284 281.591 82.3891 279.637C81.3091 273.417 78.518 269.216 71.644 268.812C70.7396 268.758 69.4406 268.23 69.0652 267.526C66.5382 262.791 61.9088 262.609 57.5145 262.032C55.1658 261.724 53.5394 260.605 52.143 258.811C49.5012 255.418 44.7001 254.629 41.2292 257.257C37.8877 259.786 34.4047 260.121 30.429 259.323C27.2704 258.689 25.5751 257.261 25.9652 253.965C26.7151 247.628 22.6316 244.559 17.8177 242.233C14.9823 240.862 11.8905 239.692 12.7386 235.95C13.5765 232.253 17.0092 232.368 20.0656 232.262C23.4604 232.144 26.9568 232.871 30.3313 231.588C29.8341 228.493 27.6638 229.059 26.0038 228.934C21.8355 228.621 19.3512 226.745 19.8018 222.289C20.097 219.37 18.4902 218.902 16.1904 218.953C11.6476 219.052 10.0169 216.407 10.0005 212.292C9.99246 210.292 10.0918 208.29 10.0163 206.294C9.83721 201.556 12.2129 198.624 16.6221 197.58C23.3457 195.989 29.5596 192.392 36.9093 193.048C39.3051 193.262 41.8345 190.928 44.3906 190.686C47.1446 190.425 49.9828 191.316 52.3868 192.997C53.3371 193.662 54.3945 194.739 55.513 193.953C58.963 191.529 62.43 191.32 66.3707 192.737C68.331 193.442 68.8487 191.429 68.8643 189.906C68.9138 185.068 72.1668 183.268 76.0653 183.391C81.9178 183.577 87.6219 182.45 93.4096 182.31C96.7866 182.229 98.9726 183.559 100.985 186.738C104.723 192.642 108.591 198.457 111.902 204.62C113.525 207.643 115.398 207.65 117.813 205.407C120.94 202.503 124.833 201.089 128.902 199.951C131.883 199.118 134.558 199.222 136.821 201.38C139.422 203.861 142.133 203.71 145.06 202.195C147.132 201.123 149.205 200.053 151.296 199.022C153.355 198.007 155.076 198.372 156.629 200.161C161.102 205.315 162.033 205.454 169.26 202.499C167.758 190.536 169.72 178.367 167.049 166.448C166.56 164.266 165.925 162.345 164.706 160.524C162.577 157.341 160.394 154.182 158.468 150.876C156.586 147.645 155.647 144.174 156.644 140.342C157.517 136.986 157.284 133.819 154.868 130.943C153.432 129.233 152.689 127.044 154.373 124.992C155.971 123.045 158.15 123.088 160.333 123.815C161.751 124.287 163.156 124.836 164.501 125.487C168.85 127.593 173.216 128.688 177.885 126.396C178.905 125.896 180.124 125.733 181.273 125.572C187.685 124.671 192.172 129.76 189.756 135.796C188.097 139.942 189.342 143.255 190.927 146.743C192.051 149.216 193.861 150.675 196.84 150.322C200.553 149.882 204.09 150.785 207.614 151.917C217.119 154.972 227.228 154.852 236.868 157.88C243.012 159.81 248.226 154.382 253.169 150.756C248.553 141.347 251.335 131.582 260.593 125.903C268.4 121.114 276.393 116.885 285.913 115.989C294.908 115.141 303.025 111.128 309.64 105.122C314.212 100.971 317.606 96.1245 318.329 88.9097C319.606 76.164 320.864 63.4806 321.251 50.6537C321.497 42.5041 327.279 37.2812 334.547 34.6934C344.08 31.2993 354.074 29.343 363.62 25.8022C369.404 23.6568 372.406 25.8633 373.832 31.8366C374.329 33.9183 374.361 36.1101 374.616 38.2503C375.068 42.0411 375.212 45.9638 378.127 48.9114C384.332 55.1857 384.974 54.8119 390.701 51.1259C397.363 46.8388 404.293 50.2268 406.398 58.2066C406.907 60.1323 407.22 62.1088 407.646 64.0569C408.538 68.1295 410.724 70.3303 415.244 70.4098C422.738 70.5416 424.118 71.5524 426.244 78.6088C427.283 82.0589 429.664 81.8093 432.11 81.7209C438.007 81.5077 443.769 81.3561 448.324 86.2183C450.142 88.159 452.088 90.4124 451.095 92.7409C449.124 97.3653 451.071 101.942 450.335 106.468C450.145 107.637 450.046 108.662 451.294 109.517C455.414 112.335 464.333 110.013 466.344 105.409C467.838 101.99 469.665 98.8505 472.744 96.6439C474.769 95.1927 476.932 93.4442 479.561 94.9855C482.16 96.5093 482.746 99.2534 482.408 101.991C482.02 105.129 481.3 108.235 481.639 111.413C482.202 116.687 483.478 120.585 489.58 123.109C496.254 125.868 502.602 130.37 507.258 136.4C509.14 138.837 511.401 140.185 514.108 138.637C519.825 135.367 524.685 137.339 529.427 140.547C532.486 142.616 535.186 143.231 539.088 141.838C547.466 138.849 558.48 144.254 562.283 152.277C563.35 154.529 564.496 156.777 565.892 158.831C567.863 161.731 570.103 163.374 573.692 160.556C576.649 158.235 579.736 159.37 582.276 161.733C586.715 165.861 591.418 166.77 596.791 163.521C600.061 161.545 603.581 161.869 605.829 164.827C608.902 168.871 612.91 169.595 617.333 169.241C622.859 168.8 627.799 170.595 632.837 172.399C636.745 173.798 637.436 176.132 636.029 179.768C633.355 186.681 629.676 192.978 624.519 198.285C621.821 201.062 620.377 204.186 619.85 207.938C618.489 217.633 615.892 227.054 613.714 236.564C611.548 246.023 613.558 256.291 611.797 266.114C611.67 266.819 612.299 267.666 612.594 268.44C616.41 278.47 608.816 290.219 598.007 291.151C595.353 291.38 592.991 291.045 591.123 289.075C589.555 287.421 587.903 286.579 585.928 288.226C583.86 289.95 584.6 291.611 586.141 293.344C588.413 295.899 587.854 298.643 586.045 301.125C580.951 308.115 576.495 315.801 570.354 321.727C565.338 326.566 560.489 330.149 560.227 338.148C560.091 342.296 554.615 344.831 551.784 348.31C546.454 354.861 543.583 362.177 549.821 369.808C554.781 362.943 561.985 360.655 569.925 360.517C576.72 360.4 577.568 361.84 579.896 368.207C581.402 372.325 582.701 375.925 581.931 380.549C581.372 383.903 585.762 385.589 587.684 388.244C592.924 395.48 592.6 399.998 585.618 405.582C581.259 409.067 581.077 411.273 585.631 414.854C588.851 417.387 591.779 419.76 592.537 424.113C592.981 426.662 595.573 427.531 597.471 428.792C600.53 430.824 600.852 433.295 600.491 436.908C599.401 447.807 592.134 451.328 582.914 453.159C580.715 453.596 578.262 454.004 576.98 456.743C579.08 459.906 582.321 462.424 583.295 466.523C583.697 468.216 585.922 468.167 587.627 468.31C594.591 468.89 599.941 475.531 598.222 482.073C597.332 485.46 593.535 487.183 592.339 490.92C589.397 500.116 592.295 511.937 602.458 514.345C605.044 514.957 607.802 515.36 610.092 516.586C613.931 518.643 617.258 518.093 620.963 516.299C623.953 514.852 627.564 512.293 630.464 516.013C633.222 519.551 634.295 523.761 631.763 528.128C630.091 531.01 628.522 533.951 626.832 536.821C625.737 538.68 625.122 540.463 624.95 542.78C624.459 549.399 618.548 551.331 613.722 553.585C609.998 555.325 606.253 556.375 605.664 561.216C605.595 561.778 604.974 562.636 604.49 562.729C596.093 564.337 594.363 575.178 585.272 576.355C582.787 576.676 581.732 581.116 581.818 584.426C581.984 590.875 579.499 593.745 573.305 594.03C571.517 594.112 569.961 594.462 568.85 595.828C566.718 598.45 564.304 599.291 560.934 598.199C558.507 597.412 556.955 598.637 556.406 601.389C555.707 604.89 553.684 605.37 551.127 602.897C547.475 599.365 543.879 598.413 539.891 602.494C537.597 604.841 535.438 604.681 533.233 601.886C529.276 596.87 524.044 593.92 517.651 592.806C512.463 591.902 506.482 591.524 507.273 583.463C500.258 583.654 493.099 586.366 487.918 579.239C482.864 584.958 476.986 582.096 471.394 581.406C469.804 581.21 467.811 580.346 467.47 578.654C466.604 574.358 463.627 574.672 460.573 575.07C453.296 576.018 446.232 576.647 441.539 569.101C440.37 567.222 438.461 568.331 437.132 569.336C428.776 575.653 418.618 579.24 410.968 586.613C408.923 588.584 405.78 587.762 403.675 589.599C399.66 593.103 396.548 597.339 395.825 602.598C394.74 610.49 394.208 618.466 393.666 626.421C393.374 630.711 394.548 634.606 397.816 637.753C399.894 639.754 401.134 642.323 401.527 645.645ZM547.108 378.747C549.61 377.405 550.906 375.782 548.247 372.903C546.737 375.403 545.355 377.691 543.247 381.182C545.225 379.95 545.908 379.526 547.108 378.747Z" fill="black"/>
<circle cx="355" cy="192.684" r="6.5" stroke="#DD3F57" stroke-width="3"/>
<circle cx="449" cy="348.684" r="6.5" stroke="#DD3F57" stroke-width="3"/>
<circle cx="207" cy="468.684" r="6.5" stroke="#DD3F57" stroke-width="3"/>
<circle cx="596" cy="547.684" r="6.5" stroke="#DD3F57" stroke-width="3"/>
<circle cx="519" cy="586.684" r="6.5" stroke="#DD3F57" stroke-width="3"/>
<circle cx="523" cy="551.684" r="12" fill="#DD3F57"/>
<path d="M331.526 533.684H327.572L333.597 516.23H338.353L344.37 533.684H340.415L336.043 520.218H335.907L331.526 533.684ZM331.279 526.824H340.62V529.704H331.279V526.824ZM346.473 533.684V520.593H350.103V533.684H346.473ZM348.297 518.906C347.757 518.906 347.294 518.727 346.907 518.369C346.527 518.005 346.336 517.571 346.336 517.065C346.336 516.565 346.527 516.136 346.907 515.778C347.294 515.414 347.757 515.233 348.297 515.233C348.836 515.233 349.297 515.414 349.677 515.778C350.064 516.136 350.257 516.565 350.257 517.065C350.257 517.571 350.064 518.005 349.677 518.369C349.297 518.727 348.836 518.906 348.297 518.906ZM356.046 520.593L358.449 525.17L360.912 520.593H364.637L360.844 527.139L364.739 533.684H361.032L358.449 529.159L355.91 533.684H352.16L356.046 527.139L352.296 520.593H356.046ZM374.41 525.076V527.957H366.45V525.076H374.41ZM383.47 533.94C382.123 533.94 380.964 533.667 379.993 533.122C379.027 532.571 378.282 531.792 377.76 530.787C377.237 529.775 376.976 528.579 376.976 527.199C376.976 525.852 377.237 524.67 377.76 523.653C378.282 522.636 379.018 521.843 379.967 521.275C380.922 520.707 382.041 520.423 383.325 520.423C384.189 520.423 384.993 520.562 385.737 520.841C386.487 521.113 387.14 521.525 387.697 522.076C388.26 522.628 388.697 523.321 389.01 524.156C389.322 524.985 389.478 525.957 389.478 527.071V528.068H378.424V525.818H386.061C386.061 525.295 385.947 524.832 385.72 524.429C385.493 524.025 385.177 523.71 384.774 523.483C384.376 523.25 383.913 523.133 383.385 523.133C382.834 523.133 382.345 523.261 381.919 523.517C381.498 523.767 381.169 524.105 380.93 524.531C380.692 524.951 380.569 525.42 380.564 525.937V528.076C380.564 528.724 380.683 529.284 380.922 529.755C381.166 530.227 381.51 530.591 381.953 530.846C382.396 531.102 382.922 531.23 383.53 531.23C383.933 531.23 384.302 531.173 384.638 531.059C384.973 530.946 385.26 530.775 385.498 530.548C385.737 530.321 385.919 530.042 386.044 529.713L389.402 529.934C389.231 530.741 388.882 531.446 388.353 532.048C387.831 532.645 387.155 533.11 386.325 533.446C385.501 533.775 384.549 533.94 383.47 533.94ZM395.478 526.116V533.684H391.848V520.593H395.308V522.903H395.461C395.751 522.142 396.237 521.539 396.919 521.096C397.601 520.647 398.427 520.423 399.399 520.423C400.308 520.423 401.101 520.622 401.777 521.02C402.453 521.417 402.978 521.985 403.353 522.724C403.728 523.457 403.916 524.332 403.916 525.349V533.684H400.285V525.997C400.291 525.196 400.086 524.571 399.672 524.122C399.257 523.667 398.686 523.44 397.959 523.44C397.47 523.44 397.038 523.545 396.663 523.755C396.294 523.966 396.004 524.272 395.794 524.676C395.589 525.074 395.484 525.554 395.478 526.116ZM414.934 525.076V527.957H406.973V525.076H414.934ZM418.096 533.684V516.23H424.982C426.306 516.23 427.434 516.483 428.366 516.988C429.297 517.488 430.008 518.184 430.496 519.076C430.991 519.963 431.238 520.985 431.238 522.145C431.238 523.304 430.988 524.326 430.488 525.213C429.988 526.099 429.263 526.789 428.314 527.284C427.371 527.778 426.229 528.025 424.888 528.025H420.499V525.068H424.292C425.002 525.068 425.587 524.946 426.047 524.701C426.513 524.451 426.86 524.108 427.087 523.67C427.32 523.227 427.437 522.718 427.437 522.145C427.437 521.565 427.32 521.059 427.087 520.628C426.86 520.19 426.513 519.852 426.047 519.613C425.581 519.369 424.991 519.247 424.275 519.247H421.786V533.684H418.096ZM433.567 533.684V520.593H437.086V522.878H437.223C437.461 522.065 437.862 521.451 438.424 521.037C438.987 520.616 439.635 520.406 440.368 520.406C440.549 520.406 440.746 520.417 440.956 520.44C441.166 520.463 441.351 520.494 441.51 520.534V523.755C441.339 523.704 441.103 523.659 440.802 523.619C440.501 523.579 440.226 523.559 439.976 523.559C439.442 523.559 438.964 523.676 438.544 523.909C438.129 524.136 437.799 524.454 437.555 524.863C437.317 525.272 437.197 525.744 437.197 526.278V533.684H433.567ZM448.692 533.94C447.368 533.94 446.223 533.659 445.258 533.096C444.297 532.528 443.556 531.738 443.033 530.727C442.51 529.71 442.249 528.531 442.249 527.19C442.249 525.838 442.51 524.656 443.033 523.645C443.556 522.628 444.297 521.838 445.258 521.275C446.223 520.707 447.368 520.423 448.692 520.423C450.016 520.423 451.158 520.707 452.118 521.275C453.084 521.838 453.829 522.628 454.351 523.645C454.874 524.656 455.135 525.838 455.135 527.19C455.135 528.531 454.874 529.71 454.351 530.727C453.829 531.738 453.084 532.528 452.118 533.096C451.158 533.659 450.016 533.94 448.692 533.94ZM448.709 531.128C449.312 531.128 449.814 530.957 450.218 530.616C450.621 530.27 450.925 529.798 451.13 529.201C451.34 528.605 451.445 527.926 451.445 527.164C451.445 526.403 451.34 525.724 451.13 525.128C450.925 524.531 450.621 524.059 450.218 523.713C449.814 523.366 449.312 523.193 448.709 523.193C448.101 523.193 447.59 523.366 447.175 523.713C446.766 524.059 446.456 524.531 446.246 525.128C446.042 525.724 445.939 526.403 445.939 527.164C445.939 527.926 446.042 528.605 446.246 529.201C446.456 529.798 446.766 530.27 447.175 530.616C447.59 530.957 448.101 531.128 448.709 531.128ZM469.279 520.593L464.702 533.684H460.611L456.035 520.593H459.87L462.589 529.96H462.725L465.435 520.593H469.279ZM476.681 533.94C475.334 533.94 474.175 533.667 473.204 533.122C472.238 532.571 471.493 531.792 470.971 530.787C470.448 529.775 470.187 528.579 470.187 527.199C470.187 525.852 470.448 524.67 470.971 523.653C471.493 522.636 472.229 521.843 473.178 521.275C474.133 520.707 475.252 520.423 476.536 520.423C477.4 520.423 478.204 520.562 478.948 520.841C479.698 521.113 480.351 521.525 480.908 522.076C481.471 522.628 481.908 523.321 482.221 524.156C482.533 524.985 482.689 525.957 482.689 527.071V528.068H471.635V525.818H479.272C479.272 525.295 479.158 524.832 478.931 524.429C478.704 524.025 478.388 523.71 477.985 523.483C477.587 523.25 477.124 523.133 476.596 523.133C476.045 523.133 475.556 523.261 475.13 523.517C474.709 523.767 474.38 524.105 474.141 524.531C473.902 524.951 473.78 525.42 473.775 525.937V528.076C473.775 528.724 473.894 529.284 474.133 529.755C474.377 530.227 474.721 530.591 475.164 530.846C475.607 531.102 476.133 531.23 476.741 531.23C477.144 531.23 477.513 531.173 477.848 531.059C478.184 530.946 478.471 530.775 478.709 530.548C478.948 530.321 479.13 530.042 479.255 529.713L482.613 529.934C482.442 530.741 482.093 531.446 481.564 532.048C481.042 532.645 480.366 533.11 479.536 533.446C478.712 533.775 477.76 533.94 476.681 533.94ZM488.689 526.116V533.684H485.059V520.593H488.519V522.903H488.672C488.962 522.142 489.448 521.539 490.13 521.096C490.812 520.647 491.638 520.423 492.61 520.423C493.519 520.423 494.312 520.622 494.988 521.02C495.664 521.417 496.189 521.985 496.564 522.724C496.939 523.457 497.127 524.332 497.127 525.349V533.684H493.496V525.997C493.502 525.196 493.297 524.571 492.883 524.122C492.468 523.667 491.897 523.44 491.17 523.44C490.681 523.44 490.249 523.545 489.874 523.755C489.505 523.966 489.215 524.272 489.005 524.676C488.8 525.074 488.695 525.554 488.689 526.116ZM505.903 533.94C504.562 533.94 503.409 533.656 502.443 533.088C501.483 532.514 500.744 531.718 500.227 530.701C499.716 529.684 499.46 528.514 499.46 527.19C499.46 525.849 499.719 524.673 500.236 523.662C500.758 522.645 501.5 521.852 502.46 521.284C503.42 520.71 504.562 520.423 505.886 520.423C507.028 520.423 508.028 520.63 508.886 521.045C509.744 521.46 510.423 522.042 510.923 522.792C511.423 523.542 511.699 524.423 511.75 525.434H508.324C508.227 524.781 507.971 524.255 507.557 523.858C507.148 523.454 506.611 523.253 505.946 523.253C505.383 523.253 504.892 523.406 504.471 523.713C504.057 524.014 503.733 524.454 503.5 525.034C503.267 525.613 503.15 526.315 503.15 527.139C503.15 527.974 503.264 528.684 503.491 529.27C503.724 529.855 504.051 530.301 504.471 530.608C504.892 530.914 505.383 531.068 505.946 531.068C506.361 531.068 506.733 530.983 507.062 530.812C507.398 530.642 507.673 530.395 507.889 530.071C508.111 529.741 508.255 529.346 508.324 528.886H511.75C511.693 529.886 511.42 530.767 510.932 531.528C510.449 532.284 509.781 532.875 508.929 533.301C508.076 533.727 507.068 533.94 505.903 533.94ZM520.04 533.94C518.694 533.94 517.535 533.667 516.563 533.122C515.597 532.571 514.853 531.792 514.33 530.787C513.807 529.775 513.546 528.579 513.546 527.199C513.546 525.852 513.807 524.67 514.33 523.653C514.853 522.636 515.589 521.843 516.537 521.275C517.492 520.707 518.611 520.423 519.895 520.423C520.759 520.423 521.563 520.562 522.307 520.841C523.057 521.113 523.711 521.525 524.268 522.076C524.83 522.628 525.268 523.321 525.58 524.156C525.893 524.985 526.049 525.957 526.049 527.071V528.068H514.995V525.818H522.631C522.631 525.295 522.518 524.832 522.29 524.429C522.063 524.025 521.748 523.71 521.344 523.483C520.947 523.25 520.483 523.133 519.955 523.133C519.404 523.133 518.915 523.261 518.489 523.517C518.069 523.767 517.739 524.105 517.5 524.531C517.262 524.951 517.14 525.42 517.134 525.937V528.076C517.134 528.724 517.253 529.284 517.492 529.755C517.736 530.227 518.08 530.591 518.523 530.846C518.966 531.102 519.492 531.23 520.1 531.23C520.503 531.23 520.873 531.173 521.208 531.059C521.543 530.946 521.83 530.775 522.069 530.548C522.307 530.321 522.489 530.042 522.614 529.713L525.972 529.934C525.802 530.741 525.452 531.446 524.924 532.048C524.401 532.645 523.725 533.11 522.895 533.446C522.072 533.775 521.12 533.94 520.04 533.94Z" fill="black"/>
<path d="M473.012 605.048H476.046L479.25 612.866H479.387L482.591 605.048H485.625V616.684H483.239V609.11H483.143L480.131 616.628H478.506L475.495 609.082H475.398V616.684H473.012V605.048ZM490.096 616.849C489.539 616.849 489.043 616.753 488.607 616.559C488.171 616.362 487.827 616.073 487.573 615.69C487.323 615.304 487.198 614.823 487.198 614.247C487.198 613.762 487.287 613.355 487.465 613.025C487.643 612.696 487.885 612.431 488.192 612.23C488.499 612.029 488.848 611.878 489.238 611.775C489.632 611.673 490.045 611.601 490.476 611.559C490.984 611.506 491.393 611.457 491.704 611.412C492.014 611.362 492.24 611.29 492.38 611.196C492.52 611.101 492.59 610.961 492.59 610.775V610.741C492.59 610.381 492.476 610.103 492.249 609.906C492.026 609.709 491.707 609.61 491.295 609.61C490.859 609.61 490.512 609.707 490.255 609.9C489.997 610.09 489.827 610.328 489.743 610.616L487.505 610.434C487.618 609.904 487.842 609.446 488.175 609.059C488.509 608.669 488.938 608.37 489.465 608.162C489.995 607.949 490.609 607.843 491.306 607.843C491.791 607.843 492.255 607.9 492.698 608.014C493.145 608.128 493.541 608.304 493.885 608.542C494.234 608.781 494.509 609.088 494.709 609.463C494.91 609.834 495.01 610.279 495.01 610.798V616.684H492.715V615.474H492.647C492.507 615.747 492.319 615.987 492.084 616.196C491.849 616.4 491.567 616.561 491.238 616.679C490.908 616.792 490.527 616.849 490.096 616.849ZM490.789 615.179C491.145 615.179 491.459 615.109 491.732 614.968C492.005 614.824 492.219 614.631 492.374 614.389C492.529 614.146 492.607 613.872 492.607 613.565V612.639C492.531 612.688 492.427 612.734 492.295 612.775C492.166 612.813 492.02 612.849 491.857 612.883C491.694 612.913 491.531 612.942 491.368 612.968C491.206 612.991 491.058 613.012 490.925 613.031C490.641 613.073 490.393 613.139 490.181 613.23C489.969 613.321 489.804 613.444 489.687 613.599C489.569 613.751 489.51 613.94 489.51 614.167C489.51 614.497 489.63 614.749 489.868 614.923C490.111 615.093 490.418 615.179 490.789 615.179ZM496.888 616.684V607.957H499.235V609.48H499.326C499.485 608.938 499.752 608.529 500.127 608.253C500.502 607.972 500.934 607.832 501.422 607.832C501.544 607.832 501.674 607.84 501.814 607.855C501.955 607.87 502.078 607.891 502.184 607.917V610.065C502.07 610.031 501.913 610.001 501.712 609.974C501.511 609.948 501.328 609.934 501.161 609.934C500.805 609.934 500.487 610.012 500.206 610.167C499.93 610.319 499.71 610.531 499.547 610.804C499.388 611.076 499.309 611.391 499.309 611.747V616.684H496.888ZM510.697 610.446L508.481 610.582C508.443 610.393 508.361 610.222 508.236 610.071C508.111 609.915 507.947 609.792 507.742 609.701C507.541 609.607 507.301 609.559 507.02 609.559C506.645 609.559 506.329 609.639 506.072 609.798C505.814 609.953 505.685 610.162 505.685 610.423C505.685 610.631 505.768 610.807 505.935 610.951C506.102 611.095 506.388 611.211 506.793 611.298L508.373 611.616C509.221 611.79 509.854 612.071 510.27 612.457C510.687 612.843 510.895 613.351 510.895 613.98C510.895 614.552 510.727 615.054 510.39 615.485C510.056 615.917 509.598 616.254 509.015 616.497C508.435 616.735 507.767 616.855 507.009 616.855C505.854 616.855 504.933 616.614 504.248 616.133C503.566 615.648 503.166 614.989 503.049 614.156L505.429 614.031C505.501 614.383 505.676 614.652 505.952 614.838C506.229 615.02 506.583 615.11 507.015 615.11C507.439 615.11 507.78 615.029 508.037 614.866C508.299 614.699 508.431 614.485 508.435 614.224C508.431 614.004 508.339 613.824 508.157 613.684C507.975 613.54 507.695 613.431 507.316 613.355L505.804 613.054C504.952 612.883 504.318 612.588 503.901 612.167C503.488 611.747 503.282 611.211 503.282 610.559C503.282 609.999 503.433 609.516 503.736 609.11C504.043 608.705 504.473 608.393 505.026 608.173C505.583 607.953 506.234 607.843 506.981 607.843C508.083 607.843 508.95 608.076 509.583 608.542C510.219 609.008 510.59 609.643 510.697 610.446ZM516.397 616.855C515.499 616.855 514.726 616.673 514.079 616.309C513.435 615.942 512.938 615.423 512.59 614.753C512.241 614.078 512.067 613.281 512.067 612.36C512.067 611.463 512.241 610.675 512.59 609.997C512.938 609.319 513.429 608.79 514.062 608.412C514.698 608.033 515.444 607.843 516.3 607.843C516.876 607.843 517.412 607.936 517.908 608.122C518.408 608.304 518.844 608.578 519.215 608.946C519.59 609.313 519.882 609.775 520.09 610.332C520.298 610.885 520.402 611.533 520.402 612.275V612.94H513.033V611.44H518.124C518.124 611.092 518.048 610.783 517.897 610.514C517.745 610.245 517.535 610.035 517.266 609.883C517.001 609.728 516.692 609.65 516.34 609.65C515.973 609.65 515.647 609.735 515.363 609.906C515.082 610.073 514.863 610.298 514.704 610.582C514.545 610.862 514.463 611.175 514.459 611.52V612.946C514.459 613.378 514.539 613.751 514.698 614.065C514.861 614.379 515.09 614.622 515.385 614.792C515.681 614.963 516.031 615.048 516.437 615.048C516.706 615.048 516.952 615.01 517.175 614.934C517.399 614.859 517.59 614.745 517.749 614.593C517.908 614.442 518.029 614.256 518.113 614.037L520.351 614.184C520.238 614.722 520.005 615.192 519.652 615.593C519.304 615.991 518.853 616.302 518.3 616.525C517.751 616.745 517.116 616.855 516.397 616.855ZM521.982 616.684V607.957H524.402V616.684H521.982ZM523.198 606.832C522.838 606.832 522.529 606.713 522.272 606.474C522.018 606.232 521.891 605.942 521.891 605.605C521.891 605.271 522.018 604.985 522.272 604.747C522.529 604.504 522.838 604.383 523.198 604.383C523.558 604.383 523.865 604.504 524.118 604.747C524.376 604.985 524.505 605.271 524.505 605.605C524.505 605.942 524.376 606.232 524.118 606.474C523.865 606.713 523.558 606.832 523.198 606.832ZM528.762 605.048V616.684H526.341V605.048H528.762ZM533.121 605.048V616.684H530.701V605.048H533.121ZM539.037 616.855C538.14 616.855 537.367 616.673 536.719 616.309C536.075 615.942 535.579 615.423 535.231 614.753C534.882 614.078 534.708 613.281 534.708 612.36C534.708 611.463 534.882 610.675 535.231 609.997C535.579 609.319 536.07 608.79 536.702 608.412C537.339 608.033 538.085 607.843 538.941 607.843C539.517 607.843 540.053 607.936 540.549 608.122C541.049 608.304 541.484 608.578 541.856 608.946C542.231 609.313 542.522 609.775 542.731 610.332C542.939 610.885 543.043 611.533 543.043 612.275V612.94H535.674V611.44H540.765C540.765 611.092 540.689 610.783 540.537 610.514C540.386 610.245 540.176 610.035 539.907 609.883C539.642 609.728 539.333 609.65 538.981 609.65C538.613 609.65 538.287 609.735 538.003 609.906C537.723 610.073 537.503 610.298 537.344 610.582C537.185 610.862 537.104 611.175 537.1 611.52V612.946C537.1 613.378 537.179 613.751 537.339 614.065C537.501 614.379 537.731 614.622 538.026 614.792C538.322 614.963 538.672 615.048 539.077 615.048C539.346 615.048 539.592 615.01 539.816 614.934C540.039 614.859 540.231 614.745 540.39 614.593C540.549 614.442 540.67 614.256 540.753 614.037L542.992 614.184C542.878 614.722 542.645 615.192 542.293 615.593C541.945 615.991 541.494 616.302 540.941 616.525C540.392 616.745 539.757 616.855 539.037 616.855Z" fill="black"/>
<path d="M620.745 556.048V567.684H618.62L613.557 560.36H613.472V567.684H611.012V556.048H613.171L618.194 563.366H618.296V556.048H620.745ZM622.732 567.684V558.957H625.152V567.684H622.732ZM623.948 557.832C623.588 557.832 623.279 557.713 623.022 557.474C622.768 557.232 622.641 556.942 622.641 556.605C622.641 556.271 622.768 555.985 623.022 555.747C623.279 555.504 623.588 555.383 623.948 555.383C624.308 555.383 624.615 555.504 624.868 555.747C625.126 555.985 625.255 556.271 625.255 556.605C625.255 556.942 625.126 557.232 624.868 557.474C624.615 557.713 624.308 557.832 623.948 557.832ZM631.035 567.855C630.141 567.855 629.372 567.665 628.728 567.287C628.088 566.904 627.595 566.374 627.25 565.696C626.91 565.018 626.739 564.237 626.739 563.355C626.739 562.461 626.911 561.677 627.256 561.003C627.605 560.324 628.099 559.796 628.739 559.417C629.379 559.035 630.141 558.843 631.023 558.843C631.785 558.843 632.451 558.982 633.023 559.258C633.595 559.535 634.048 559.923 634.381 560.423C634.715 560.923 634.898 561.51 634.932 562.184H632.648C632.584 561.749 632.413 561.398 632.137 561.133C631.864 560.864 631.506 560.73 631.063 560.73C630.688 560.73 630.36 560.832 630.08 561.037C629.804 561.237 629.588 561.531 629.432 561.917C629.277 562.304 629.199 562.771 629.199 563.321C629.199 563.878 629.275 564.351 629.427 564.741C629.582 565.131 629.8 565.429 630.08 565.633C630.36 565.838 630.688 565.94 631.063 565.94C631.34 565.94 631.588 565.883 631.807 565.77C632.031 565.656 632.215 565.491 632.358 565.275C632.506 565.056 632.603 564.792 632.648 564.485H634.932C634.894 565.152 634.713 565.739 634.387 566.247C634.065 566.751 633.62 567.145 633.052 567.429C632.483 567.713 631.811 567.855 631.035 567.855ZM640.459 567.855C639.562 567.855 638.789 567.673 638.141 567.309C637.497 566.942 637.001 566.423 636.652 565.753C636.304 565.078 636.13 564.281 636.13 563.36C636.13 562.463 636.304 561.675 636.652 560.997C637.001 560.319 637.491 559.79 638.124 559.412C638.76 559.033 639.507 558.843 640.363 558.843C640.938 558.843 641.474 558.936 641.971 559.122C642.471 559.304 642.906 559.578 643.277 559.946C643.652 560.313 643.944 560.775 644.152 561.332C644.361 561.885 644.465 562.533 644.465 563.275V563.94H637.096V562.44H642.187C642.187 562.092 642.111 561.783 641.959 561.514C641.808 561.245 641.598 561.035 641.329 560.883C641.063 560.728 640.755 560.65 640.402 560.65C640.035 560.65 639.709 560.735 639.425 560.906C639.145 561.073 638.925 561.298 638.766 561.582C638.607 561.862 638.526 562.175 638.522 562.52V563.946C638.522 564.378 638.601 564.751 638.76 565.065C638.923 565.379 639.152 565.622 639.448 565.792C639.743 565.963 640.094 566.048 640.499 566.048C640.768 566.048 641.014 566.01 641.238 565.934C641.461 565.859 641.652 565.745 641.812 565.593C641.971 565.442 642.092 565.256 642.175 565.037L644.414 565.184C644.3 565.722 644.067 566.192 643.715 566.593C643.366 566.991 642.916 567.302 642.363 567.525C641.813 567.745 641.179 567.855 640.459 567.855Z" fill="black"/>
<path d="M463.012 354.684V343.048H465.472V352.656H470.461V354.684H463.012ZM472.445 357.957C472.138 357.957 471.85 357.932 471.581 357.883C471.316 357.838 471.097 357.779 470.922 357.707L471.468 355.9C471.752 355.987 472.008 356.035 472.235 356.042C472.466 356.05 472.665 355.997 472.831 355.883C473.002 355.77 473.14 355.576 473.246 355.304L473.388 354.934L470.258 345.957H472.803L474.61 352.366H474.701L476.525 345.957H479.087L475.695 355.628C475.532 356.097 475.311 356.506 475.03 356.855C474.754 357.207 474.403 357.478 473.979 357.667C473.555 357.86 473.044 357.957 472.445 357.957ZM483.988 354.855C483.105 354.855 482.342 354.667 481.698 354.292C481.058 353.913 480.563 353.387 480.215 352.713C479.866 352.035 479.692 351.249 479.692 350.355C479.692 349.453 479.866 348.665 480.215 347.991C480.563 347.313 481.058 346.787 481.698 346.412C482.342 346.033 483.105 345.843 483.988 345.843C484.87 345.843 485.632 346.033 486.272 346.412C486.916 346.787 487.412 347.313 487.76 347.991C488.109 348.665 488.283 349.453 488.283 350.355C488.283 351.249 488.109 352.035 487.76 352.713C487.412 353.387 486.916 353.913 486.272 354.292C485.632 354.667 484.87 354.855 483.988 354.855ZM483.999 352.98C484.401 352.98 484.736 352.866 485.005 352.639C485.274 352.408 485.476 352.093 485.613 351.696C485.753 351.298 485.823 350.845 485.823 350.338C485.823 349.83 485.753 349.378 485.613 348.98C485.476 348.582 485.274 348.268 485.005 348.037C484.736 347.806 484.401 347.69 483.999 347.69C483.594 347.69 483.253 347.806 482.976 348.037C482.704 348.268 482.497 348.582 482.357 348.98C482.221 349.378 482.152 349.83 482.152 350.338C482.152 350.845 482.221 351.298 482.357 351.696C482.497 352.093 482.704 352.408 482.976 352.639C483.253 352.866 483.594 352.98 483.999 352.98ZM492.277 349.639V354.684H489.857V345.957H492.164V347.497H492.266C492.459 346.989 492.783 346.588 493.238 346.292C493.692 345.993 494.243 345.843 494.891 345.843C495.497 345.843 496.026 345.976 496.476 346.241C496.927 346.506 497.277 346.885 497.527 347.378C497.777 347.866 497.902 348.449 497.902 349.128V354.684H495.482V349.559C495.486 349.025 495.349 348.609 495.073 348.309C494.796 348.006 494.416 347.855 493.931 347.855C493.605 347.855 493.317 347.925 493.067 348.065C492.821 348.205 492.628 348.41 492.488 348.679C492.351 348.944 492.281 349.264 492.277 349.639Z" fill="black"/>
<path d="M374.012 201.684V190.048H378.603C379.485 190.048 380.237 190.217 380.858 190.554C381.48 190.887 381.953 191.351 382.279 191.946C382.608 192.537 382.773 193.218 382.773 193.991C382.773 194.764 382.607 195.446 382.273 196.037C381.94 196.628 381.457 197.088 380.824 197.417C380.196 197.747 379.434 197.912 378.54 197.912H375.614V195.94H378.143C378.616 195.94 379.006 195.859 379.313 195.696C379.624 195.529 379.855 195.3 380.006 195.008C380.161 194.713 380.239 194.374 380.239 193.991C380.239 193.605 380.161 193.268 380.006 192.98C379.855 192.688 379.624 192.463 379.313 192.304C379.002 192.141 378.608 192.059 378.131 192.059H376.472V201.684H374.012ZM386.58 201.849C386.023 201.849 385.527 201.753 385.091 201.559C384.656 201.362 384.311 201.073 384.057 200.69C383.807 200.304 383.682 199.823 383.682 199.247C383.682 198.762 383.771 198.355 383.949 198.025C384.127 197.696 384.37 197.431 384.677 197.23C384.983 197.029 385.332 196.878 385.722 196.775C386.116 196.673 386.529 196.601 386.961 196.559C387.468 196.506 387.877 196.457 388.188 196.412C388.499 196.362 388.724 196.29 388.864 196.196C389.004 196.101 389.074 195.961 389.074 195.775V195.741C389.074 195.381 388.961 195.103 388.733 194.906C388.51 194.709 388.192 194.61 387.779 194.61C387.343 194.61 386.997 194.707 386.739 194.9C386.482 195.09 386.311 195.328 386.228 195.616L383.989 195.434C384.103 194.904 384.326 194.446 384.66 194.059C384.993 193.669 385.423 193.37 385.949 193.162C386.48 192.949 387.093 192.843 387.79 192.843C388.275 192.843 388.739 192.9 389.182 193.014C389.629 193.128 390.025 193.304 390.37 193.542C390.718 193.781 390.993 194.088 391.194 194.463C391.394 194.834 391.495 195.279 391.495 195.798V201.684H389.199V200.474H389.131C388.991 200.747 388.804 200.987 388.569 201.196C388.334 201.4 388.052 201.561 387.722 201.679C387.393 201.792 387.012 201.849 386.58 201.849ZM387.273 200.179C387.629 200.179 387.944 200.109 388.216 199.968C388.489 199.824 388.703 199.631 388.858 199.389C389.014 199.146 389.091 198.872 389.091 198.565V197.639C389.016 197.688 388.911 197.734 388.779 197.775C388.65 197.813 388.504 197.849 388.341 197.883C388.179 197.913 388.016 197.942 387.853 197.968C387.69 197.991 387.542 198.012 387.41 198.031C387.125 198.073 386.877 198.139 386.665 198.23C386.453 198.321 386.288 198.444 386.171 198.599C386.054 198.751 385.995 198.94 385.995 199.167C385.995 199.497 386.114 199.749 386.353 199.923C386.595 200.093 386.902 200.179 387.273 200.179ZM393.373 201.684V192.957H395.719V194.48H395.81C395.969 193.938 396.236 193.529 396.611 193.253C396.986 192.972 397.418 192.832 397.907 192.832C398.028 192.832 398.159 192.84 398.299 192.855C398.439 192.87 398.562 192.891 398.668 192.917V195.065C398.554 195.031 398.397 195.001 398.197 194.974C397.996 194.948 397.812 194.934 397.645 194.934C397.289 194.934 396.971 195.012 396.691 195.167C396.414 195.319 396.195 195.531 396.032 195.804C395.873 196.076 395.793 196.391 395.793 196.747V201.684H393.373ZM399.92 201.684V192.957H402.34V201.684H399.92ZM401.135 191.832C400.776 191.832 400.467 191.713 400.209 191.474C399.956 191.232 399.829 190.942 399.829 190.605C399.829 190.271 399.956 189.985 400.209 189.747C400.467 189.504 400.776 189.383 401.135 189.383C401.495 189.383 401.802 189.504 402.056 189.747C402.313 189.985 402.442 190.271 402.442 190.605C402.442 190.942 402.313 191.232 402.056 191.474C401.802 191.713 401.495 191.832 401.135 191.832ZM411.54 195.446L409.324 195.582C409.286 195.393 409.205 195.222 409.08 195.071C408.955 194.915 408.79 194.792 408.586 194.701C408.385 194.607 408.144 194.559 407.864 194.559C407.489 194.559 407.173 194.639 406.915 194.798C406.658 194.953 406.529 195.162 406.529 195.423C406.529 195.631 406.612 195.807 406.779 195.951C406.946 196.095 407.232 196.211 407.637 196.298L409.216 196.616C410.065 196.79 410.697 197.071 411.114 197.457C411.531 197.843 411.739 198.351 411.739 198.98C411.739 199.552 411.571 200.054 411.233 200.485C410.9 200.917 410.442 201.254 409.858 201.497C409.279 201.735 408.61 201.855 407.853 201.855C406.697 201.855 405.777 201.614 405.091 201.133C404.41 200.648 404.01 199.989 403.893 199.156L406.273 199.031C406.345 199.383 406.519 199.652 406.796 199.838C407.072 200.02 407.427 200.11 407.858 200.11C408.283 200.11 408.624 200.029 408.881 199.866C409.143 199.699 409.275 199.485 409.279 199.224C409.275 199.004 409.182 198.824 409 198.684C408.819 198.54 408.538 198.431 408.16 198.355L406.648 198.054C405.796 197.883 405.161 197.588 404.745 197.167C404.332 196.747 404.125 196.211 404.125 195.559C404.125 194.999 404.277 194.516 404.58 194.11C404.887 193.705 405.317 193.393 405.87 193.173C406.427 192.953 407.078 192.843 407.824 192.843C408.927 192.843 409.794 193.076 410.427 193.542C411.063 194.008 411.434 194.643 411.54 195.446Z" fill="black"/>
<path d="M223.012 475.684V464.048H227.671C228.527 464.048 229.241 464.175 229.813 464.429C230.385 464.682 230.815 465.035 231.103 465.485C231.391 465.932 231.535 466.448 231.535 467.031C231.535 467.485 231.444 467.885 231.262 468.23C231.08 468.571 230.83 468.851 230.512 469.071C230.197 469.287 229.838 469.44 229.432 469.531V469.645C229.875 469.663 230.29 469.788 230.677 470.02C231.067 470.251 231.383 470.574 231.625 470.991C231.868 471.404 231.989 471.896 231.989 472.468C231.989 473.086 231.836 473.637 231.529 474.122C231.226 474.603 230.777 474.984 230.182 475.264C229.588 475.544 228.855 475.684 227.983 475.684H223.012ZM225.472 473.673H227.478C228.163 473.673 228.663 473.542 228.978 473.281C229.292 473.016 229.449 472.663 229.449 472.224C229.449 471.902 229.372 471.618 229.216 471.372C229.061 471.126 228.84 470.932 228.552 470.792C228.268 470.652 227.929 470.582 227.535 470.582H225.472V473.673ZM225.472 468.917H227.296C227.633 468.917 227.932 468.859 228.194 468.741C228.459 468.62 228.667 468.449 228.819 468.23C228.974 468.01 229.052 467.747 229.052 467.44C229.052 467.02 228.902 466.681 228.603 466.423C228.307 466.165 227.887 466.037 227.341 466.037H225.472V468.917ZM237.488 475.855C236.605 475.855 235.842 475.667 235.198 475.292C234.558 474.913 234.063 474.387 233.715 473.713C233.366 473.035 233.192 472.249 233.192 471.355C233.192 470.453 233.366 469.665 233.715 468.991C234.063 468.313 234.558 467.787 235.198 467.412C235.842 467.033 236.605 466.843 237.488 466.843C238.37 466.843 239.132 467.033 239.772 467.412C240.416 467.787 240.912 468.313 241.26 468.991C241.609 469.665 241.783 470.453 241.783 471.355C241.783 472.249 241.609 473.035 241.26 473.713C240.912 474.387 240.416 474.913 239.772 475.292C239.132 475.667 238.37 475.855 237.488 475.855ZM237.499 473.98C237.901 473.98 238.236 473.866 238.505 473.639C238.774 473.408 238.976 473.093 239.113 472.696C239.253 472.298 239.323 471.845 239.323 471.338C239.323 470.83 239.253 470.378 239.113 469.98C238.976 469.582 238.774 469.268 238.505 469.037C238.236 468.806 237.901 468.69 237.499 468.69C237.094 468.69 236.753 468.806 236.476 469.037C236.204 469.268 235.997 469.582 235.857 469.98C235.721 470.378 235.652 470.83 235.652 471.338C235.652 471.845 235.721 472.298 235.857 472.696C235.997 473.093 236.204 473.408 236.476 473.639C236.753 473.866 237.094 473.98 237.499 473.98ZM243.357 475.684V466.957H245.704V468.48H245.795C245.954 467.938 246.221 467.529 246.596 467.253C246.971 466.972 247.402 466.832 247.891 466.832C248.012 466.832 248.143 466.84 248.283 466.855C248.423 466.87 248.546 466.891 248.652 466.917V469.065C248.539 469.031 248.382 469.001 248.181 468.974C247.98 468.948 247.796 468.934 247.63 468.934C247.274 468.934 246.956 469.012 246.675 469.167C246.399 469.319 246.179 469.531 246.016 469.804C245.857 470.076 245.777 470.391 245.777 470.747V475.684H243.357ZM252.714 475.826C252.051 475.826 251.45 475.656 250.912 475.315C250.378 474.97 249.954 474.465 249.64 473.798C249.329 473.128 249.174 472.306 249.174 471.332C249.174 470.332 249.335 469.501 249.657 468.838C249.979 468.171 250.407 467.673 250.941 467.343C251.479 467.01 252.068 466.843 252.708 466.843C253.197 466.843 253.604 466.927 253.929 467.093C254.259 467.256 254.524 467.461 254.725 467.707C254.929 467.949 255.085 468.188 255.191 468.423H255.265V464.048H257.679V475.684H255.293V474.287H255.191C255.077 474.529 254.916 474.77 254.708 475.008C254.503 475.243 254.236 475.438 253.907 475.593C253.581 475.749 253.183 475.826 252.714 475.826ZM253.481 473.9C253.871 473.9 254.2 473.794 254.469 473.582C254.742 473.366 254.95 473.065 255.094 472.679C255.242 472.292 255.316 471.84 255.316 471.321C255.316 470.802 255.244 470.351 255.1 469.968C254.956 469.586 254.748 469.29 254.475 469.082C254.202 468.874 253.871 468.77 253.481 468.77C253.083 468.77 252.748 468.878 252.475 469.093C252.202 469.309 251.996 469.609 251.856 469.991C251.715 470.374 251.645 470.817 251.645 471.321C251.645 471.828 251.715 472.277 251.856 472.667C252 473.054 252.206 473.357 252.475 473.576C252.748 473.792 253.083 473.9 253.481 473.9ZM263.647 475.855C262.749 475.855 261.976 475.673 261.329 475.309C260.685 474.942 260.188 474.423 259.84 473.753C259.491 473.078 259.317 472.281 259.317 471.36C259.317 470.463 259.491 469.675 259.84 468.997C260.188 468.319 260.679 467.79 261.312 467.412C261.948 467.033 262.694 466.843 263.55 466.843C264.126 466.843 264.662 466.936 265.158 467.122C265.658 467.304 266.094 467.578 266.465 467.946C266.84 468.313 267.132 468.775 267.34 469.332C267.548 469.885 267.652 470.533 267.652 471.275V471.94H260.283V470.44H265.374C265.374 470.092 265.298 469.783 265.147 469.514C264.995 469.245 264.785 469.035 264.516 468.883C264.251 468.728 263.942 468.65 263.59 468.65C263.223 468.65 262.897 468.735 262.613 468.906C262.332 469.073 262.113 469.298 261.954 469.582C261.795 469.862 261.713 470.175 261.709 470.52V471.946C261.709 472.378 261.789 472.751 261.948 473.065C262.111 473.379 262.34 473.622 262.635 473.792C262.931 473.963 263.281 474.048 263.687 474.048C263.956 474.048 264.202 474.01 264.425 473.934C264.649 473.859 264.84 473.745 264.999 473.593C265.158 473.442 265.279 473.256 265.363 473.037L267.601 473.184C267.488 473.722 267.255 474.192 266.902 474.593C266.554 474.991 266.103 475.302 265.55 475.525C265.001 475.745 264.366 475.855 263.647 475.855ZM271.721 475.849C271.164 475.849 270.668 475.753 270.232 475.559C269.796 475.362 269.452 475.073 269.198 474.69C268.948 474.304 268.823 473.823 268.823 473.247C268.823 472.762 268.912 472.355 269.09 472.025C269.268 471.696 269.51 471.431 269.817 471.23C270.124 471.029 270.473 470.878 270.863 470.775C271.257 470.673 271.67 470.601 272.101 470.559C272.609 470.506 273.018 470.457 273.329 470.412C273.639 470.362 273.865 470.29 274.005 470.196C274.145 470.101 274.215 469.961 274.215 469.775V469.741C274.215 469.381 274.101 469.103 273.874 468.906C273.651 468.709 273.332 468.61 272.92 468.61C272.484 468.61 272.137 468.707 271.88 468.9C271.622 469.09 271.452 469.328 271.368 469.616L269.13 469.434C269.243 468.904 269.467 468.446 269.8 468.059C270.134 467.669 270.563 467.37 271.09 467.162C271.62 466.949 272.234 466.843 272.931 466.843C273.416 466.843 273.88 466.9 274.323 467.014C274.77 467.128 275.166 467.304 275.51 467.542C275.859 467.781 276.134 468.088 276.334 468.463C276.535 468.834 276.635 469.279 276.635 469.798V475.684H274.34V474.474H274.272C274.132 474.747 273.944 474.987 273.709 475.196C273.474 475.4 273.192 475.561 272.863 475.679C272.533 475.792 272.152 475.849 271.721 475.849ZM272.414 474.179C272.77 474.179 273.084 474.109 273.357 473.968C273.63 473.824 273.844 473.631 273.999 473.389C274.154 473.146 274.232 472.872 274.232 472.565V471.639C274.156 471.688 274.052 471.734 273.92 471.775C273.791 471.813 273.645 471.849 273.482 471.883C273.319 471.913 273.156 471.942 272.993 471.968C272.831 471.991 272.683 472.012 272.55 472.031C272.266 472.073 272.018 472.139 271.806 472.23C271.594 472.321 271.429 472.444 271.312 472.599C271.194 472.751 271.135 472.94 271.135 473.167C271.135 473.497 271.255 473.749 271.493 473.923C271.736 474.093 272.043 474.179 272.414 474.179ZM284.11 471.968V466.957H286.53V475.684H284.206V474.099H284.116C283.919 474.61 283.591 475.021 283.133 475.332C282.678 475.643 282.123 475.798 281.468 475.798C280.884 475.798 280.371 475.665 279.928 475.4C279.485 475.135 279.138 474.758 278.888 474.27C278.642 473.781 278.517 473.196 278.513 472.514V466.957H280.934V472.082C280.938 472.597 281.076 473.004 281.348 473.304C281.621 473.603 281.987 473.753 282.445 473.753C282.737 473.753 283.009 473.686 283.263 473.554C283.517 473.417 283.722 473.217 283.877 472.951C284.036 472.686 284.114 472.359 284.11 471.968ZM290.489 466.957L292.091 470.008L293.733 466.957H296.216L293.688 471.321L296.285 475.684H293.813L292.091 472.667L290.398 475.684H287.898L290.489 471.321L287.989 466.957H290.489Z" fill="black"/>
</svg>
